<svg xmlns="http://www.w3.org/2000/svg" width="45.777" height="37.104" viewBox="0 0 45.777 37.104">
  <g id="Grupo_1301" data-name="Grupo 1301" transform="translate(3286.934 770.703)">
    <path id="Caminho_4363" data-name="Caminho 4363" d="M-3242.62-717.988c.077-.146.146-.3.215-.446.019-.045.044-.1.05-.118.032-.086.065-.172.1-.259a11.889,11.889,0,0,0,.479-1.885,10.341,10.341,0,0,1-3.255,2.565c-3.381,1.7-7.34,1.747-10.989,1.054a32.93,32.93,0,0,1-6.46-2.067c-2.318-.963-4.615-1.98-6.923-2.966s-4.593-1.958-6.887-2.943a41.2,41.2,0,0,1-5.488-2.714,16.347,16.347,0,0,1-4.675-4.193c-.167-.228-.323-.462-.471-.7-.007.409-.009.819,0,1.228.006.218.015.435.031.652q.016.209.04.419c0,.023,0,.032.005.047l.013.071a7.941,7.941,0,0,0,.324,1.282,6.1,6.1,0,0,0,.53,1.107,6.4,6.4,0,0,0,1.449,1.608,42.212,42.212,0,0,0,3.519,2.491q2.023,1.367,4.093,2.664c2.653,1.658,5.372,3.215,8.173,4.611,4.484,2.235,9.316,4.181,14.392,4.326a14.666,14.666,0,0,0,6.583-1.174,11.672,11.672,0,0,0,2.924-1.909,13.79,13.79,0,0,0,1.1-1.11q.2-.226.388-.462l.008-.01c.057-.076.113-.152.167-.23A8.451,8.451,0,0,0-3242.62-717.988Z" transform="translate(0 -21.453)" fill="#f8393c"/>
    <path id="Caminho_4364" data-name="Caminho 4364" d="M-3187.014-696.431Z" transform="translate(-56.347 -41.842)" fill="#f8393c"/>
    <g id="Grupo_1300" data-name="Grupo 1300" transform="translate(-3286.593 -770.703)">
      <path id="Caminho_4365" data-name="Caminho 4365" d="M-3240.922-753.167c-.572-3.812-1.548-8.252-4.8-10.723a12.582,12.582,0,0,0-5.673-2.075c-2.225-.363-4.487-.5-6.727-.743-1.174-.127-2.346-.268-3.516-.433a32.5,32.5,0,0,1-6.513-1.533,35.2,35.2,0,0,0-6.1-1.882,10.314,10.314,0,0,0-9.673,3.493,10.217,10.217,0,0,0-1.546,10.117c1.316,3.554,4.613,5.7,7.876,7.281,4.01,1.939,8.188,3.564,12.283,5.313,3.765,1.609,7.552,3.465,11.671,3.932,3.212.364,6.75.061,9.412-1.946C-3240.864-744.9-3240.338-749.272-3240.922-753.167Zm-38.9-5.066a1.57,1.57,0,0,1-2.214,0,1.57,1.57,0,0,1,0-2.214l6.375-6.375a1.57,1.57,0,0,1,2.214,0,1.57,1.57,0,0,1,0,2.214Zm3.472,4.2a1.57,1.57,0,0,1,0-2.214l8.208-8.208a1.57,1.57,0,0,1,2.214,0,1.57,1.57,0,0,1,0,2.214l-8.208,8.208A1.57,1.57,0,0,1-3276.353-754.03Zm10.356,3.355a1.57,1.57,0,0,1-2.214,0,1.569,1.569,0,0,1,0-2.214l9.276-9.276a1.569,1.569,0,0,1,2.213,0,1.57,1.57,0,0,1,0,2.214Zm7.272,3.344a1.57,1.57,0,0,1-2.214,0,1.57,1.57,0,0,1,0-2.214L-3250.481-760a1.57,1.57,0,0,1,2.213,0,1.57,1.57,0,0,1,0,2.214Zm14.582-3.525-6.375,6.375a1.569,1.569,0,0,1-2.213,0h0a1.57,1.57,0,0,1,0-2.214l6.375-6.375a1.57,1.57,0,0,1,2.214,0h0A1.57,1.57,0,0,1-3244.143-750.856Z" transform="translate(3286.151 770.703)" fill="#f8393c"/>
    </g>
  </g>
</svg>
