<svg xmlns="http://www.w3.org/2000/svg" width="44.538" height="43.923" viewBox="0 0 44.538 43.923">
  <path id="Caminho_4362" data-name="Caminho 4362" d="M-3443.672-756.248q-.411-.087-.819-.183c-5.122-1.2-10.878-3.419-14.483-7.41a14.444,14.444,0,0,1-3.534-7.295,14.441,14.441,0,0,1,2.56-10.712c3.737-5.115,10.355-7.83,16.409-5.328,4.3,1.776,6.662,5.774,8.721,9.711a48.578,48.578,0,0,1,3.784,9.6c.911,3.3,1.178,6.839,2.947,9.853a12.984,12.984,0,0,0,4.841,4.718c.793.286,2.54.117,3.3.474a3.088,3.088,0,0,1,1.564,3.891,2.537,2.537,0,0,1-3.883.815,6.036,6.036,0,0,1-.537,2.728,2.07,2.07,0,0,1-2.332,1.108,2.459,2.459,0,0,1-1.346-2.177,12.554,12.554,0,0,0-.27-2.681,15.53,15.53,0,0,0-5.931-5.865c-1.725-.79-3.83-.39-5.676-.512A37.723,37.723,0,0,1-3443.672-756.248Z" transform="translate(3462.689 788.119)" fill="#ff971d"/>
</svg>
