<svg xmlns="http://www.w3.org/2000/svg" width="61.213" height="27.18" viewBox="0 0 61.213 27.18">
  <g id="Grupo_1302" data-name="Grupo 1302" transform="translate(3107.45 763.52)">
    <path id="Caminho_4366" data-name="Caminho 4366" d="M-3046.292-760.6c.2-1.275-.15-2.7-1.259-2.895a2.125,2.125,0,0,0-1.173.177,5.684,5.684,0,0,0-1.532,1.05c-3.8,3.316-7.55,6.589-11.5,9.739-.227.181-.563.582-.767.375-4.97-5.055-11.113-9.552-18.261-10.727a22.929,22.929,0,0,0-14.421,2.524,38.31,38.31,0,0,0-9.079,7c-.637.639-1.275,1.282-1.877,1.955-.694.776-1.483,1.779-1.244,2.893.256,1.2,1.425,1.969,2.243,2.773a34.905,34.905,0,0,0,10.623,7.217,25.788,25.788,0,0,0,16.771,1.356,35.235,35.235,0,0,0,14.287-8.217c.4-.355,1,.344,1.429.653a103.85,103.85,0,0,0,12.919,7.559,1.847,1.847,0,0,0,1.776.225c3.125-2.006-2.067-8.271-2.521-10.666a11.541,11.541,0,0,1,1.219-6.612A27.354,27.354,0,0,0-3046.292-760.6Zm-43.522,17.34a1.145,1.145,0,0,1-1.975-1.154,10.693,10.693,0,0,0-.7-11.553,1.152,1.152,0,0,1,.41-1.565,1.178,1.178,0,0,1,1.565.41A12.944,12.944,0,0,1-3089.814-743.263Z" transform="translate(0 0)" fill="#00a0ea"/>
  </g>
</svg>
