<svg xmlns="http://www.w3.org/2000/svg" width="42.079" height="45.55" viewBox="0 0 42.079 45.55">
  <path id="Caminho_4369" data-name="Caminho 4369" d="M-2715.361-767.956a21.865,21.865,0,0,0-.584-2.273,21.726,21.726,0,0,0-.986-2.559,21.333,21.333,0,0,0-1.228-2.292c-.363-.588-.815-1.568-1.482-1.868-.989-.444-2.329,1.81-2.968,2.357a12.011,12.011,0,0,1-3.405,1.983c-.093.036-.183.08-.276.114a38.036,38.036,0,0,1-6.264,1.507c-.458.087-.915.183-1.371.285a26.227,26.227,0,0,0-10.074,4.32,15.952,15.952,0,0,0-6.168,8.986,13.126,13.126,0,0,0,.492,6.58,33.536,33.536,0,0,0,2.164,4.689,46.459,46.459,0,0,1,3.444-3.169q.894-.748,1.814-1.464c.643-.5,1.226-.787,1.521-1.611a16.63,16.63,0,0,0,.465-2.977l.838-5.2.1-.65a1.006,1.006,0,0,1,1.154-.833,1.006,1.006,0,0,1,.833,1.153c-.208,1.289-.448,2.572-.668,3.858-.11.643-.215,1.287-.308,1.933-.046.321-.478,1.236.069,1.327.354.059.818-.561,1.073-.743a75.535,75.535,0,0,0,9.942-8l.135-.136a9.475,9.475,0,0,0,1.9-2.364,1.006,1.006,0,0,1,1.341-.479,1.006,1.006,0,0,1,.479,1.34,11.1,11.1,0,0,1-2.293,2.918l-.133.134a51.338,51.338,0,0,1-4.9,4.308c-.858.671-1.73,1.324-2.608,1.968-.355.26-.755.466-1.124.707-.407.265-2.028,1.209-.757,1.407a15.65,15.65,0,0,0,4.328-.385,40.847,40.847,0,0,1,4.632-.312,2.348,2.348,0,0,1,.75.076.887.887,0,0,1,.624.836,1.007,1.007,0,0,1-.946,1.063l-9.339.546a22.314,22.314,0,0,0-3.311.127,6.864,6.864,0,0,0-2.811,1.833c-.879.708-1.741,1.435-2.579,2.191a39.067,39.067,0,0,0-4.676,4.953,37.123,37.123,0,0,0-2.346,3.368l-.156.257a1.007,1.007,0,0,0,.344,1.381,1,1,0,0,0,.518.144,1.006,1.006,0,0,0,.863-.488,39.031,39.031,0,0,1,4.731-6.207,14.63,14.63,0,0,0,12.076,2.549,21.405,21.405,0,0,0,11.374-7.185C-2716.411-753.406-2713.928-760.8-2715.361-767.956Z" transform="translate(2602.06 1197.816) rotate(9)" fill="#01df76"/>
</svg>
